<svg height="600" width="800" xmlns="http://www.w3.org/2000/svg">
    <path
        d="M101.941 102.265c-5.674 14.521-11.73 29.953-13.459 34.293-1.73 4.34-2.845 8.19-2.48 8.555 1.107 1.108 1.864-.265 6.563-11.915L97.083 122h32.809l4.365 11.2c4.509 11.571 5.291 13.03 6.391 11.93.98-.98-25.456-68.288-27.026-68.812-.751-.25-6.007 11.426-11.681 25.947m160.227-24.221c-.459 1.196-.835 3.55-.835 5.232 0 2.321-.95 3.247-3.947 3.847-5.708 1.141-14.413 9.544-16.254 15.69-1.39 4.638-2.011 5.187-5.867 5.187-4.58 0-6.747 2.651-4.227 5.171.822.823 3.025 1.498 4.895 1.501 2.772.004 3.855 1.11 5.861 5.988 2.77 6.735 7.963 11.69 14.872 14.188 3.704 1.339 4.667 2.403 4.667 5.153 0 1.906.673 4.139 1.496 4.961 2.547 2.547 5.171.348 5.171-4.332 0-3.849.528-4.534 4.099-5.318 5.669-1.246 13.189-8.205 16.186-14.979 1.847-4.177 3.279-5.672 5.444-5.687 7.493-.052 8.272-6.146.881-6.889-3.583-.361-4.477-1.217-6.007-5.757-2.064-6.122-9.876-13.565-15.857-15.108-3.344-.863-4.2-1.877-4.746-5.624-.719-4.931-4.397-6.965-5.832-3.224m200 0c-.459 1.196-.835 3.55-.835 5.232 0 2.321-.95 3.247-3.947 3.847-5.708 1.141-14.413 9.544-16.254 15.69-1.39 4.638-2.011 5.187-5.867 5.187-4.58 0-6.747 2.651-4.227 5.171.822.823 3.025 1.498 4.895 1.501 2.772.004 3.855 1.11 5.861 5.988 2.77 6.735 7.963 11.69 14.872 14.188 3.704 1.339 4.667 2.403 4.667 5.153 0 1.906.673 4.139 1.496 4.961 2.547 2.547 5.171.348 5.171-4.332 0-3.849.528-4.534 4.099-5.318 5.669-1.246 13.189-8.205 16.186-14.979 1.847-4.177 3.279-5.672 5.444-5.687 7.493-.052 8.272-6.146.881-6.889-3.583-.361-4.477-1.217-6.007-5.757-2.064-6.122-9.876-13.565-15.857-15.108-3.344-.863-4.2-1.877-4.746-5.624-.719-4.931-4.397-6.965-5.832-3.224m200 0c-.459 1.196-.835 3.55-.835 5.232 0 2.321-.95 3.247-3.947 3.847-5.708 1.141-14.413 9.544-16.254 15.69-1.39 4.638-2.011 5.187-5.867 5.187-4.58 0-6.747 2.651-4.227 5.171.822.823 3.025 1.498 4.895 1.501 2.772.004 3.855 1.11 5.861 5.988 2.77 6.735 7.963 11.69 14.872 14.188 3.704 1.339 4.667 2.403 4.667 5.153 0 1.906.673 4.139 1.496 4.961 2.547 2.547 5.171.348 5.171-4.332 0-3.849.528-4.534 4.099-5.318 5.669-1.246 13.189-8.205 16.186-14.979 1.847-4.177 3.279-5.672 5.444-5.687 7.493-.052 8.272-6.146.881-6.889-3.583-.361-4.477-1.217-6.007-5.757-2.064-6.122-9.876-13.565-15.857-15.108-3.344-.863-4.2-1.877-4.746-5.624-.719-4.931-4.397-6.965-5.832-3.224M121.106 99.123c3.792 9.785 6.894 18.485 6.894 19.334 0 1.741-29.316 2.284-29.357.543-.048-2.05 13.839-37.667 14.687-37.667.485 0 3.984 8.006 7.776 17.79m153.155-4.515c8.669 5.286 11.913 15.741 7.663 24.697-3.25 6.85-8.874 10.017-17.797 10.023-6.688.005-7.575-.382-12.333-5.384-4.57-4.804-5.127-6.127-5.127-12.176 0-4.466.914-8.266 2.675-11.115 5.077-8.216 16.725-11.041 24.919-6.045m200 0c8.669 5.286 11.913 15.741 7.663 24.697-3.25 6.85-8.874 10.017-17.797 10.023-6.688.005-7.575-.382-12.333-5.384-4.57-4.804-5.127-6.127-5.127-12.176 0-4.466.914-8.266 2.675-11.115 5.077-8.216 16.725-11.041 24.919-6.045m200 0c8.669 5.286 11.913 15.741 7.663 24.697-3.25 6.85-8.874 10.017-17.797 10.023-6.688.005-7.575-.382-12.333-5.384-4.57-4.804-5.127-6.127-5.127-12.176 0-4.466.914-8.266 2.675-11.115 5.077-8.216 16.725-11.041 24.919-6.045"
        fill-rule="evenodd" />
</svg>