<?xml version="1.0" encoding="UTF-8"?>
<!--Generator: React Native Icon Generator CLI-->
<!DOCTYPE svg
PUBLIC "-//W3C//DTD SVG 1.1//EN"
       "http://www.w3.org/Graphics/SVG/1.1/DTD/svg11.dtd">
<svg version="1.1" xmlns="http://www.w3.org/2000/svg" xmlns:xlink="http://www.w3.org/1999/xlink" viewBox="0 0 3300 2200">
 <style>.defaults {-sfsymbols-wiggle-style:clockwise}

.monochrome-0 {-sfsymbols-motion-group:0}

.multicolor-0:systemBlueColor {-sfsymbols-motion-group:0}

.hierarchical-0:primary {-sfsymbols-motion-group:0}

.SFSymbolsPreviewWireframe {fill:none;opacity:1.0;stroke:black;stroke-width:0.5}
</style>
   <g id="Notes">
              <rect height="2200" id="artboard" style="fill:white;opacity:1" width="3300" x="0" y="0" />
              <line style="fill:none;stroke:black;opacity:1;stroke-width:0.5;" x1="263" x2="3036" y1="292" y2="292" />
              <text style="stroke:none;fill:black;font-family:sans-serif;font-size:13;font-weight:bold;"
                     transform="matrix(1 0 0 1 263 322)">Weight/Scale Variations</text>
              <text style="stroke:none;fill:black;font-family:sans-serif;font-size:13;text-anchor:middle;"
                     transform="matrix(1 0 0 1 559.711 322)">Ultralight</text>
              <text style="stroke:none;fill:black;font-family:sans-serif;font-size:13;text-anchor:middle;"
                     transform="matrix(1 0 0 1 856.422 322)">Thin</text>
              <text style="stroke:none;fill:black;font-family:sans-serif;font-size:13;text-anchor:middle;"
                     transform="matrix(1 0 0 1 1153.13 322)">Light</text>
              <text style="stroke:none;fill:black;font-family:sans-serif;font-size:13;text-anchor:middle;"
                     transform="matrix(1 0 0 1 1449.84 322)">Regular</text>
              <text style="stroke:none;fill:black;font-family:sans-serif;font-size:13;text-anchor:middle;"
                     transform="matrix(1 0 0 1 1746.56 322)">Medium</text>
              <text style="stroke:none;fill:black;font-family:sans-serif;font-size:13;text-anchor:middle;"
                     transform="matrix(1 0 0 1 2043.27 322)">Semibold</text>
              <text style="stroke:none;fill:black;font-family:sans-serif;font-size:13;text-anchor:middle;"
                     transform="matrix(1 0 0 1 2339.98 322)">Bold</text>
              <text style="stroke:none;fill:black;font-family:sans-serif;font-size:13;text-anchor:middle;"
                     transform="matrix(1 0 0 1 2636.69 322)">Heavy</text>
              <text style="stroke:none;fill:black;font-family:sans-serif;font-size:13;text-anchor:middle;"
                     transform="matrix(1 0 0 1 2933.4 322)">Black</text>
              <line style="fill:none;stroke:black;opacity:1;stroke-width:0.5;" x1="263" x2="3036" y1="1903" y2="1903" />
              <g transform="matrix(0.2 0 0 0.2 263 1933)">
                     <path
                            d="m46.2402 4.15039c21.7773 0 39.4531-17.627 39.4531-39.4043s-17.6758-39.4043-39.4531-39.4043c-21.7285 0-39.4043 17.627-39.4043 39.4043s17.6758 39.4043 39.4043 39.4043Zm0-7.42188c-17.6758 0-31.9336-14.3066-31.9336-31.9824s14.2578-31.9824 31.9336-31.9824 31.9824 14.3066 31.9824 31.9824-14.3066 31.9824-31.9824 31.9824Zm-17.9688-31.9824c0 2.14844 1.51367 3.61328 3.75977 3.61328h10.498v10.5957c0 2.19727 1.46484 3.71094 3.61328 3.71094 2.24609 0 3.71094-1.51367 3.71094-3.71094v-10.5957h10.5957c2.19727 0 3.71094-1.46484 3.71094-3.61328 0-2.19727-1.51367-3.71094-3.71094-3.71094h-10.5957v-10.5469c0-2.24609-1.46484-3.75977-3.71094-3.75977-2.14844 0-3.61328 1.51367-3.61328 3.75977v10.5469h-10.498c-2.24609 0-3.75977 1.51367-3.75977 3.71094Z" />
              </g>
              <g transform="matrix(0.2 0 0 0.2 281.506 1933)">
                     <path
                            d="m58.5449 14.5508c27.4902 0 49.8047-22.3145 49.8047-49.8047s-22.3145-49.8047-49.8047-49.8047-49.8047 22.3145-49.8047 49.8047 22.3145 49.8047 49.8047 49.8047Zm0-8.30078c-22.9492 0-41.5039-18.5547-41.5039-41.5039s18.5547-41.5039 41.5039-41.5039 41.5039 18.5547 41.5039 41.5039-18.5547 41.5039-41.5039 41.5039Zm-22.6562-41.5039c0 2.39258 1.66016 4.00391 4.15039 4.00391h14.3555v14.4043c0 2.44141 1.66016 4.15039 4.05273 4.15039 2.44141 0 4.15039-1.66016 4.15039-4.15039v-14.4043h14.4043c2.44141 0 4.15039-1.61133 4.15039-4.00391 0-2.44141-1.70898-4.15039-4.15039-4.15039h-14.4043v-14.3555c0-2.49023-1.70898-4.19922-4.15039-4.19922-2.39258 0-4.05273 1.70898-4.05273 4.19922v14.3555h-14.3555c-2.49023 0-4.15039 1.70898-4.15039 4.15039Z" />
              </g>
              <g transform="matrix(0.2 0 0 0.2 304.924 1933)">
                     <path
                            d="m74.8535 28.3203c35.1074 0 63.623-28.4668 63.623-63.5742s-28.5156-63.623-63.623-63.623-63.5742 28.5156-63.5742 63.623 28.4668 63.5742 63.5742 63.5742Zm0-9.08203c-30.127 0-54.4922-24.3652-54.4922-54.4922s24.3652-54.4922 54.4922-54.4922 54.4922 24.3652 54.4922 54.4922-24.3652 54.4922-54.4922 54.4922Zm-28.8574-54.4922c0 2.58789 1.85547 4.39453 4.58984 4.39453h19.7266v19.7754c0 2.68555 1.85547 4.58984 4.44336 4.58984 2.68555 0 4.54102-1.85547 4.54102-4.58984v-19.7754h19.7754c2.68555 0 4.58984-1.80664 4.58984-4.39453 0-2.73438-1.85547-4.58984-4.58984-4.58984h-19.7754v-19.7266c0-2.73438-1.85547-4.63867-4.54102-4.63867-2.58789 0-4.44336 1.9043-4.44336 4.63867v19.7266h-19.7266c-2.73438 0-4.58984 1.85547-4.58984 4.58984Z" />
              </g>
              <text style="stroke:none;fill:black;font-family:sans-serif;font-size:13;font-weight:bold;"
                     transform="matrix(1 0 0 1 263 1953)">Design Variations</text>
              <text style="stroke:none;fill:black;font-family:sans-serif;font-size:13;"
                     transform="matrix(1 0 0 1 263 1971)">Symbols are supported in up to nine weights and three
                     scales.</text>
              <text style="stroke:none;fill:black;font-family:sans-serif;font-size:13;"
                     transform="matrix(1 0 0 1 263 1989)">For optimal layout with text and other symbols, vertically
                     align</text>
              <text style="stroke:none;fill:black;font-family:sans-serif;font-size:13;"
                     transform="matrix(1 0 0 1 263 2007)">symbols with the adjacent text.</text>
              <line style="fill:none;stroke:#00AEEF;stroke-width:0.5;opacity:1.0;" x1="776" x2="776" y1="1919"
                     y2="1933" />
              <g transform="matrix(0.2 0 0 0.2 776 1933)">
                     <path
                            d="m16.5527 0.78125c2.58789 0 3.85742-0.976562 4.78516-3.71094l6.29883-17.2363h28.8086l6.29883 17.2363c0.927734 2.73438 2.19727 3.71094 4.73633 3.71094 2.58789 0 4.24805-1.5625 4.24805-4.00391 0-0.830078-0.146484-1.61133-0.537109-2.63672l-22.9004-60.9863c-1.12305-2.97852-3.125-4.49219-6.25-4.49219-3.02734 0-5.07812 1.46484-6.15234 4.44336l-22.9004 61.084c-0.390625 1.02539-0.537109 1.80664-0.537109 2.63672 0 2.44141 1.5625 3.95508 4.10156 3.95508Zm13.4766-28.3691 11.8652-32.8613h0.244141l11.8652 32.8613Z" />
              </g>
              <line style="fill:none;stroke:#00AEEF;stroke-width:0.5;opacity:1.0;" x1="792.836" x2="792.836" y1="1919"
                     y2="1933" />
              <text style="stroke:none;fill:black;font-family:sans-serif;font-size:13;font-weight:bold;"
                     transform="matrix(1 0 0 1 776 1953)">Margins</text>
              <text style="stroke:none;fill:black;font-family:sans-serif;font-size:13;"
                     transform="matrix(1 0 0 1 776 1971)">Leading and trailing margins on the left and right side of
                     each symbol</text>
              <text style="stroke:none;fill:black;font-family:sans-serif;font-size:13;"
                     transform="matrix(1 0 0 1 776 1989)">can be adjusted by modifying the x-location of the margin
                     guidelines.</text>
              <text style="stroke:none;fill:black;font-family:sans-serif;font-size:13;"
                     transform="matrix(1 0 0 1 776 2007)">Modifications are automatically applied proportionally to
                     all</text>
              <text style="stroke:none;fill:black;font-family:sans-serif;font-size:13;"
                     transform="matrix(1 0 0 1 776 2025)">scales and weights.</text>
              <g transform="matrix(0.2 0 0 0.2 1289 1933)">
                     <path
                            d="m14.209 9.32617 8.49609 8.54492c4.29688 4.3457 9.22852 4.05273 13.8672-1.07422l53.4668-58.9355-4.83398-4.88281-53.0762 58.3984c-1.75781 2.00195-3.41797 2.49023-5.76172 0.146484l-5.85938-5.81055c-2.34375-2.29492-1.80664-4.00391 0.195312-5.81055l57.373-54.0039-4.88281-4.83398-57.959 54.4434c-4.93164 4.58984-5.32227 9.47266-1.02539 13.8184Zm32.0801-90.9668c-2.09961 2.05078-2.24609 4.93164-1.07422 6.88477 1.17188 1.80664 3.4668 2.97852 6.68945 2.14844 7.32422-1.70898 14.9414-2.00195 22.0703 2.68555l-2.92969 7.27539c-1.70898 4.15039-0.830078 7.08008 1.85547 9.81445l11.4746 11.5723c2.44141 2.44141 4.49219 2.53906 7.32422 2.05078l5.32227-0.976562 3.32031 3.36914-0.195312 2.7832c-0.195312 2.49023 0.439453 4.39453 2.88086 6.78711l3.80859 3.71094c2.39258 2.39258 5.46875 2.53906 7.8125 0.195312l14.5508-14.5996c2.34375-2.34375 2.24609-5.32227-0.146484-7.71484l-3.85742-3.80859c-2.39258-2.39258-4.24805-3.17383-6.64062-2.97852l-2.88086 0.244141-3.22266-3.17383 1.2207-5.61523c0.634766-2.83203-0.146484-5.0293-3.07617-7.95898l-10.9863-10.9375c-16.6992-16.6016-38.8672-16.2109-53.3203-1.75781Zm7.4707 1.85547c12.1582-8.88672 28.6133-7.37305 39.7461 3.75977l12.1582 12.0605c1.17188 1.17188 1.36719 2.09961 1.02539 3.80859l-1.61133 7.42188 7.51953 7.42188 4.93164-0.292969c1.26953-0.0488281 1.66016 0.0488281 2.63672 1.02539l2.88086 2.88086-12.207 12.207-2.88086-2.88086c-0.976562-0.976562-1.12305-1.36719-1.07422-2.68555l0.341797-4.88281-7.4707-7.42188-7.61719 1.26953c-1.61133 0.341797-2.34375 0.195312-3.56445-0.976562l-10.0098-10.0098c-1.26953-1.17188-1.41602-2.00195-0.634766-3.85742l4.39453-10.4492c-7.8125-7.27539-17.9688-10.4004-28.125-7.42188-0.78125 0.195312-1.07422-0.439453-0.439453-0.976562Z" />
              </g>
              <text style="stroke:none;fill:black;font-family:sans-serif;font-size:13;font-weight:bold;"
                     transform="matrix(1 0 0 1 1289 1953)">Exporting</text>
              <text style="stroke:none;fill:black;font-family:sans-serif;font-size:13;"
                     transform="matrix(1 0 0 1 1289 1971)">Symbols should be outlined when exporting to ensure
                     the</text>
              <text style="stroke:none;fill:black;font-family:sans-serif;font-size:13;"
                     transform="matrix(1 0 0 1 1289 1989)">design is preserved when submitting to Xcode.</text>
              <text id="template-version"
                     style="stroke:none;fill:black;font-family:sans-serif;font-size:13;text-anchor:end;"
                     transform="matrix(1 0 0 1 3036 1933)">Template v.6.0</text>
              <text style="stroke:none;fill:black;font-family:sans-serif;font-size:13;text-anchor:end;"
                     transform="matrix(1 0 0 1 3036 1951)">Requires Xcode 16 or greater</text>
              <text id="descriptive-name"
                     style="stroke:none;fill:black;font-family:sans-serif;font-size:13;text-anchor:end;"
                     transform="matrix(1 0 0 1 3036 1969)">Generated from circle</text>
              <text style="stroke:none;fill:black;font-family:sans-serif;font-size:13;text-anchor:end;"
                     transform="matrix(1 0 0 1 3036 1987)">Typeset at 100.0 points</text>
              <text style="stroke:none;fill:black;font-family:sans-serif;font-size:13;"
                     transform="matrix(1 0 0 1 263 726)">Small</text>
              <text style="stroke:none;fill:black;font-family:sans-serif;font-size:13;"
                     transform="matrix(1 0 0 1 263 1156)">Medium</text>
              <text style="stroke:none;fill:black;font-family:sans-serif;font-size:13;"
                     transform="matrix(1 0 0 1 263 1586)">Large</text>
       </g>
 <g id="Guides">
              <g id="H-reference" style="fill:#27AAE1;stroke:none;" transform="matrix(1 0 0 1 339 696)">
                     <path
                            d="M0.993654 0L3.63775 0L29.3281-67.1323L30.0303-67.1323L30.0303-70.459L28.1226-70.459ZM11.6885-24.4799L46.9815-24.4799L46.2315-26.7285L12.4385-26.7285ZM55.1196 0L57.7637 0L30.6382-70.459L29.4326-70.459L29.4326-67.1323Z" />
              </g>
              <line id="Baseline-S" style="fill:none;stroke:#27AAE1;opacity:1;stroke-width:0.5;" x1="263" x2="3036"
                     y1="696" y2="696" />
              <line id="Capline-S" style="fill:none;stroke:#27AAE1;opacity:1;stroke-width:0.5;" x1="263" x2="3036"
                     y1="625.541" y2="625.541" />
              <g id="H-reference" style="fill:#27AAE1;stroke:none;" transform="matrix(1 0 0 1 339 1126)">
                     <path
                            d="M0.993654 0L3.63775 0L29.3281-67.1323L30.0303-67.1323L30.0303-70.459L28.1226-70.459ZM11.6885-24.4799L46.9815-24.4799L46.2315-26.7285L12.4385-26.7285ZM55.1196 0L57.7637 0L30.6382-70.459L29.4326-70.459L29.4326-67.1323Z" />
              </g>
              <line id="Baseline-M" style="fill:none;stroke:#27AAE1;opacity:1;stroke-width:0.5;" x1="263" x2="3036"
                     y1="1126" y2="1126" />
              <line id="Capline-M" style="fill:none;stroke:#27AAE1;opacity:1;stroke-width:0.5;" x1="263" x2="3036"
                     y1="1055.54" y2="1055.54" />
              <g id="H-reference" style="fill:#27AAE1;stroke:none;" transform="matrix(1 0 0 1 339 1556)">
                     <path
                            d="M0.993654 0L3.63775 0L29.3281-67.1323L30.0303-67.1323L30.0303-70.459L28.1226-70.459ZM11.6885-24.4799L46.9815-24.4799L46.2315-26.7285L12.4385-26.7285ZM55.1196 0L57.7637 0L30.6382-70.459L29.4326-70.459L29.4326-67.1323Z" />
              </g>
              <line id="Baseline-L" style="fill:none;stroke:#27AAE1;opacity:1;stroke-width:0.5;" x1="263" x2="3036"
                     y1="1556" y2="1556" />
              <line id="Capline-L" style="fill:none;stroke:#27AAE1;opacity:1;stroke-width:0.5;" x1="263" x2="3036"
                     y1="1485.54" y2="1485.54" />
              <line id="right-margin-Black-S" style="fill:none;stroke:#00AEEF;stroke-width:0.5;opacity:1.0;"
                     x1="2982.23" x2="2982.23" y1="600.785" y2="720.121" />
              <line id="left-margin-Black-S" style="fill:none;stroke:#00AEEF;stroke-width:0.5;opacity:1.0;" x1="2884.57"
                     x2="2884.57" y1="600.785" y2="720.121" />
              <line id="right-margin-Regular-S" style="fill:none;stroke:#00AEEF;stroke-width:0.5;opacity:1.0;"
                     x1="1496.11" x2="1496.11" y1="600.785" y2="720.121" />
              <line id="left-margin-Regular-S" style="fill:none;stroke:#00AEEF;stroke-width:0.5;opacity:1.0;"
                     x1="1403.58" x2="1403.58" y1="600.785" y2="720.121" />
              <line id="right-margin-Ultralight-S" style="fill:none;stroke:#00AEEF;stroke-width:0.5;opacity:1.0;"
                     x1="603.773" x2="603.773" y1="600.785" y2="720.121" />
              <line id="left-margin-Ultralight-S" style="fill:none;stroke:#00AEEF;stroke-width:0.5;opacity:1.0;"
                     x1="515.649" x2="515.649" y1="600.785" y2="720.121" />
       </g>
 <g id="Symbols">
  <!-- Small size variants -->
  <g id="Black-S" transform="matrix(1 0 0 1 2884.57 625.541)">
   <path class="monochrome-0 multicolor-0:systemBlueColor hierarchical-0:primary SFSymbolsPreviewWireframe" d="M12.173267674416664 -2.9823430952499983 C 9.5903980545 -2.3048690965833316,7.404004695166665 -0.09538003274999873,6.718832128333331 2.541379564333335 C 6.380095128999998 3.8347390163333355,6.380095128999998 16.583567900333335,6.718832128333331 17.876927352333336 C 7.0768155480833315 19.262669622333338,7.681153149166665 20.286579188500003,8.782048396999999 21.387474436333335 C 10.175489235166665 22.780915274500003,12.096281992749997 23.681647750000003,13.674488466916666 23.681647750000003 L 14.178744681833333 23.681647750000003 14.221086806749998 44.04436055083333 L 14.263428931666665 64.40707335166667 14.625261635499998 65.484872895 C 15.903223951166666 69.29951342158333,18.743995604666665 72.11334008650002,22.50089687 73.28352244783335 L 23.655682095 73.64535515166668 48.83 73.64535515166668 L 74.004317905 73.64535515166668 75.15910313 73.28352244783335 C 78.91600439533332 72.11334008650002,81.75677604883333 69.29951342158333,83.03473836449999 65.484872895 L 83.39657106833334 64.40707335166667 83.43891319324999 44.04436055083333 L 83.48125531816666 23.681647750000003 83.98551153308333 23.681647750000003 C 84.71687550891667 23.681647750000003,86.13341205158332 23.28132220533334,87.05339094749999 22.81555883125 C 88.07730051366667 22.295905480000002,89.77868407850002 20.602220483333333,90.29063886158335 19.589858769416672 C 91.13363207583333 17.930817329500005,91.17212491666666 17.507396080333336,91.16827563258332 10.263043435500002 C 91.16827563258332 3.057183631500001,91.11438565541667 2.4489967463333358,90.32913170241667 0.905433828916669 C 89.80947835116666 -0.12232502133333156,88.46607820608332 -1.535012279916666,87.38827866275 -2.1816920059166645 C 85.47903375741666 -3.3326279468333313,88.61235100125 -3.244094412916665,48.83 -3.244094412916665 C 15.633774065333332 -3.244094412916665,13.116342274833332 -3.2286972765833317,12.173267674416664 -2.9823430952499983 M83.47355675 10.209153458333336 L 83.47355675 15.983079583333335 48.83 15.983079583333335 L 14.186443249999998 15.983079583333335 14.186443249999998 10.209153458333336 L 14.186443249999998 4.435227333333335 48.83 4.435227333333335 L 83.47355675 4.435227333333335 83.47355675 10.209153458333336 M75.77498858333334 43.13592950716667 C 75.77498858333334 59.172046998333336,75.73649574249998 62.70953907091667,75.56327795875 63.290780967500005 C 75.28228022066668 64.22615699975,74.64714834691668 65.022958805,73.78875799633335 65.53106430400001 L 73.080489725 65.94678698500002 48.83 65.94678698500002 L 24.579510275 65.94678698500002 23.871242003666666 65.53106430400001 C 23.48246431125 65.30395654308333,22.978208096333333 64.86898744166666,22.751100335416663 64.57259256725001 C 21.838820007666666 63.379314501416665,21.885011416666664 64.49560688558336,21.885011416666664 43.216764472916665 L 21.885011416666664 23.681647750000003 48.83 23.681647750000003 L 75.77498858333334 23.681647750000003 75.77498858333334 43.13592950716667 M38.20597593 31.514940859583334 C 36.450702388 32.088484188,35.40369711733334 33.48192502616667,35.40369711733334 35.241047852250006 C 35.40369711733334 36.746117928833335,35.68084557133333 37.127197053083336,39.65330674533333 41.08041180666667 C 41.65108518458333 43.070491677750006,43.28703092 44.768025958500004,43.28703092 44.852710208333335 C 43.28703092 44.93739445816667,41.65108518458333 46.63492873891667,39.65330674533333 48.62500861000001 C 37.105080682166665 51.16168682091667,35.92719975266667 52.44349842066668,35.711639844000004 52.91696036291667 C 35.330560719750004 53.74840572491667,35.30746501525 55.10720300633334,35.65774986683333 55.946346936500014 C 36.21589605891667 57.285897797500006,37.767157544499995 58.325204500000005,39.206789791666665 58.32135521591666 C 40.623326334333335 58.317505931833345,41.07754185616667 57.98261821658334,45.096194439166666 53.97166420175001 L 48.83 50.24555720908334 52.56380556083334 53.97166420175001 C 56.58245814383333 57.98261821658334,57.03667366566667 58.317505931833345,58.45321020833333 58.32135521591666 C 59.8928424555 58.325204500000005,61.444103941083334 57.285897797500006,62.00225013316667 55.946346936500014 C 62.35253498475 55.10720300633334,62.32943928025 53.74840572491667,61.948360156 52.91696036291667 C 61.73280024733334 52.44349842066668,60.55491931783333 51.16168682091667,58.006693254666665 48.62500861000001 C 56.00891481541667 46.63492873891667,54.37296908 44.93739445816667,54.37296908 44.852710208333335 C 54.37296908 44.768025958500004,56.00891481541667 43.070491677750006,58.006693254666665 41.08041180666667 C 61.97915442866667 37.127197053083336,62.25630288266667 36.746117928833335,62.25630288266667 35.241047852250006 C 62.25630288266667 33.74752562791667,61.50569248641666 32.519604005333335,60.146895205 31.79593859766667 C 59.33469626341667 31.36096949625,57.621764846333335 31.337873791750006,56.83651089333333 31.745897904583337 C 56.54011601891667 31.89986926791667,54.61547397725 33.69748493483334,52.56380556083334 35.74530406716667 L 48.83 39.45986320758334 45.096194439166666 35.74530406716667 C 43.04452602275 33.69748493483334,41.12758254925 31.907567836083338,40.838886243 31.765144325 C 40.238397926000005 31.4649001665,38.77951925841666 31.32632593950001,38.20597593 31.514940859583334 "/>
  </g>
  <g id="Regular-S" transform="matrix(1 0 0 1 1404.14 625.541)">
   <path class="monochrome-0 multicolor-0:systemBlueColor hierarchical-0:primary SFSymbolsPreviewWireframe" d="M11.867349048874996 -0.6274233426250033 C 9.443656537249996 0.008299283374997302,7.392006244249996 2.0816219386249966,6.749059497499996 4.5558832954999975 C 6.431198184499996 5.769535581499998,6.431198184499996 17.732679543499998,6.749059497499996 18.9463318295 C 7.084981112374996 20.2466735645,7.652074591249996 21.20748162425,8.685123858499995 22.2405308915 C 9.992689714249996 23.54809674725,11.795107841374996 24.393318875,13.276052595124996 24.393318875 L 13.749232504249997 24.393318875 13.788965168374997 43.50111825875 L 13.828697832499996 62.608917642499996 14.168231507749995 63.6202945475 C 15.367435552249997 67.199846379125,18.033136108999997 69.84026251325,21.558507034999998 70.93832886725 L 22.642125147499996 71.2778625425 46.265 71.2778625425 L 69.8878748525 71.2778625425 70.97149296500001 70.93832886725 C 74.496863891 69.84026251325,77.16256444774999 67.199846379125,78.36176849225001 63.6202945475 L 78.70130216750002 62.608917642499996 78.741034831625 43.50111825875 L 78.78076749575001 24.393318875 79.25394740487499 24.393318875 C 79.940238876125 24.393318875,81.269477094125 24.017664596000003,82.13275952375 23.580605290625 C 83.0935675835 23.092977140000002,84.69009826925 21.503670574999997,85.17050229912502 20.553698696375 C 85.96154352125001 18.99690067475,85.997664125 18.599574033499998,85.99405206462501 11.801676407750001 C 85.99405206462501 5.039899385749997,85.943483219375 4.469193846499998,85.20662290287501 3.0207576361249977 C 84.71899475225001 2.0563375159999975,83.458385681375 0.7307113583749967,82.44700877637501 0.12388521537499741 C 80.655426830375 -0.9561208367500029,83.595643975625 -0.8730434481250029,46.265 -0.8730434481250029 C 15.114591325999996 -0.8730434481250029,12.752303840749997 -0.8585952066250035,11.867349048874996 -0.6274233426250033 M78.773543375 11.7511075625 L 78.773543375 17.169198125 46.265 17.169198125 L 13.756456624999997 17.169198125 13.756456624999997 11.7511075625 L 13.756456624999997 6.333016999999998 46.265 6.333016999999998 L 78.773543375 6.333016999999998 78.773543375 11.7511075625 M71.549422625 42.64867201025 C 71.549422625 57.696515532499994,71.51330202124998 61.015999017125004,71.350759304375 61.56142013375 C 71.087078897 62.439150804875005,70.49108893512499 63.186847302500006,69.68559947150001 63.663639272000005 L 69.02098036250001 64.0537417925 46.265 64.0537417925 L 23.5090196375 64.0537417925 22.8444005285 63.663639272000005 C 22.479582430624998 63.450527709875,22.006402521499997 63.04236488750001,21.793290959374996 62.76423623862501 C 20.9372326505 61.644497522375,20.980577374999996 62.69199503112501,20.980577374999996 42.724525278125 L 20.980577374999996 24.393318875 46.265 24.393318875 L 71.549422625 24.393318875 71.549422625 42.64867201025 M36.295713365 31.743861738125 C 34.648613834 32.282058733999996,33.666133412 33.58962458975,33.666133412 35.240336181125 C 33.666133412 36.65265178775,33.926201758999994 37.010245764875,37.653848065999995 40.71983177 C 39.528507400624996 42.587266983875004,41.06363306 44.18018560925,41.06363306 44.259650937500005 C 41.06363306 44.33911626575,39.528507400624996 45.932034891125,37.653848065999995 47.799470105000005 C 35.262664097750005 50.179817892125,34.157373623 51.382633997000006,33.955098242000005 51.826917423124996 C 33.597504264875 52.607122464125005,33.575831902625 53.88217977650001,33.90452939674999 54.66960893825001 C 34.428278151125 55.92660594875,35.883938482249995 56.90186225,37.2348490625 56.898250189624996 C 38.564087280500004 56.894638129250005,38.990310404750005 56.580388876625015,42.76130143625 52.816621965875 L 46.265 49.320147522875004 49.76869856375 52.816621965875 C 53.539689595249996 56.580388876625015,53.9659127195 56.894638129250005,55.295150937500004 56.898250189624996 C 56.646061517750006 56.90186225,58.101721848875 55.92660594875,58.62547060325 54.66960893825001 C 58.954168097375 53.88217977650001,58.932495735125 52.607122464125005,58.574901758 51.826917423124996 C 58.372626377 51.382633997000006,57.26733590225 50.179817892125,54.876151934000006 47.799470105000005 C 53.001492599375005 45.932034891125,51.46636694 44.33911626575,51.46636694 44.259650937500005 C 51.46636694 44.18018560925,53.001492599375005 42.587266983875004,54.876151934000006 40.71983177 C 58.60379824100001 37.010245764875,58.863866588 36.65265178775,58.863866588 35.240336181125 C 58.863866588 33.838856755625,58.159514814875 32.686609495999996,56.8844575025 32.007542145500004 C 56.122312763375 31.599379323125,54.5149458965 31.577706960875005,53.77808558 31.960585360625004 C 53.499956931125 32.105067775625,51.693926743625 33.79189997075,49.76869856375 35.71351609025 L 46.265 39.199154352125 42.76130143625 35.71351609025 C 40.836073256375 33.79189997075,39.037267189625 32.112291896375005,38.7663626615 31.9786456625 C 38.202881243 31.696904953250005,36.833910360874995 31.566870779750005,36.295713365 31.743861738125 "/>
  </g>
  <g id="Ultralight-S" transform="matrix(1 0 0 1 515.484 625.541)">
   <path class="monochrome-0 multicolor-0:systemBlueColor hierarchical-0:primary SFSymbolsPreviewWireframe" d="M11.567086905583329 1.3560355152500003 C 9.277463185499997 1.9565925565833338,7.3393018248333295 3.915227452750001,6.731920271666663 6.252622755666668 C 6.431641750999996 7.399140743666667,6.431641750999996 18.700532339666665,6.731920271666663 19.84705032766667 C 7.049260071916663 21.075462457666667,7.58498425083333 21.9831225315,8.560889442999997 22.959027723666665 C 9.796126084833329 24.1942643655,11.498841787249996 24.99273225,12.89786671308333 24.99273225 L 13.344872238166664 24.99273225 13.382407053249995 43.043566049166664 L 13.41994186833333 61.09439984833333 13.740693924499995 62.04983150499999 C 14.87356288883333 65.43137711841666,17.391807755333332 67.9257361935,20.722169529999995 68.96306199216667 L 21.745846304999997 69.28381404833334 44.062 69.28381404833334 L 66.378153695 69.28381404833334 67.40183047 68.96306199216667 C 70.73219224466666 67.9257361935,73.25043711116666 65.43137711841666,74.3833060755 62.04983150499999 L 74.70405813166667 61.09439984833333 74.74159294674999 43.043566049166664 L 74.77912776183334 24.99273225 75.22613328691665 24.99273225 C 75.87446191108333 24.99273225,77.13017208841666 24.63785763466667,77.94570125249999 24.22497466875 C 78.85336132633333 23.76432012,80.3615784415 22.262927516666664,80.81540847841666 21.365504210583335 C 81.56269252416666 19.8948219105,81.59681508333333 19.519473759666667,81.59340282741667 13.097608124500002 C 81.59340282741667 6.709865048499999,81.54563124458332 6.170728613666666,80.84953103758332 4.802413991083334 C 80.38887648883332 3.8913416613333336,79.19799917391666 2.6390437399166657,78.24256751725 2.065784745916668 C 76.55008858258333 1.0455202268333332,79.32766489874999 1.124002112916667,44.062 1.124002112916667 C 14.634704974666663 1.124002112916667,12.403089605166663 1.137651136583333,11.567086905583329 1.3560355152500003 M74.77230325 13.049836541666668 L 74.77230325 18.168220416666667 44.062 18.168220416666667 L 13.351696749999997 18.168220416666667 13.351696749999997 13.049836541666668 L 13.351696749999997 7.931452666666667 44.062 7.931452666666667 L 74.77230325 7.931452666666667 74.77230325 13.049836541666668 M67.94779141666666 42.238273652833335 C 67.94779141666666 56.45373180166666,67.9136688575 59.58959498908333,67.76011734125001 60.104845632499995 C 67.51102265933332 60.93402382025,66.94800043308334 61.640360795,66.18706736366667 62.090778576 L 65.559212275 62.459302215 44.062 62.459302215 L 22.564787724999995 62.459302215 21.936932636333328 62.090778576 C 21.592294788749996 61.88945547691666,21.145289263666662 61.503870558333325,20.94396616458333 61.24112685275001 C 20.13526151233333 60.18332751858333,20.17620858333333 61.17288173441667,20.17620858333333 42.30993102708333 L 20.17620858333333 24.99273225 44.062 24.99273225 L 67.94779141666666 24.99273225 67.94779141666666 42.238273652833335 M34.64417367 31.936673040416665 C 33.08818497199999 32.445099172,32.160051362666664 33.68033581383333,32.160051362666664 35.23973676775 C 32.160051362666664 36.57392883116667,32.405733788666666 36.91174216691667,35.92718189466666 40.41612899333333 C 37.698142715416665 42.18026530225,39.148351479999995 43.6850701615,39.148351479999995 43.76013979166667 C 39.148351479999995 43.83520942183333,37.698142715416665 45.34001428108333,35.92718189466666 47.10415059 C 33.66826847783334 49.35282723908333,32.62411816733333 50.48910845933334,32.433031836 50.90881593708333 C 32.09521850025 51.64586321508333,32.074744964749996 52.85038955366667,32.38526025316666 53.5942613435 C 32.88003736108333 54.7817264025,34.255176495499995 55.7030355,35.53136020833333 55.69962324408333 C 36.78707038566667 55.69621098816667,37.18971658383333 55.39934472341667,40.75211176083333 51.84377405825 L 44.062 48.54071033091667 47.371888239166665 51.84377405825 C 50.93428341616666 55.39934472341667,51.33692961433333 55.69621098816667,52.59263979166666 55.69962324408333 C 53.8688235045 55.7030355,55.243962638916656 54.7817264025,55.73873974683333 53.5942613435 C 56.04925503524999 52.85038955366667,56.028781499749996 51.64586321508333,55.690968164 50.90881593708333 C 55.49988183266667 50.48910845933334,54.45573152216666 49.35282723908333,52.19681810533333 47.10415059 C 50.42585728458333 45.34001428108333,48.97564851999999 43.83520942183333,48.97564851999999 43.76013979166667 C 48.97564851999999 43.6850701615,50.42585728458333 42.18026530225,52.19681810533333 40.41612899333333 C 55.71826621133333 36.91174216691667,55.963948637333324 36.57392883116667,55.963948637333324 35.23973676775 C 55.963948637333324 33.91578147208333,55.29855873358333 32.82727183466667,54.09403239499999 32.18576772233334 C 53.374046396583324 31.800182803749998,51.855592513666664 31.779709268250002,51.159492306666664 32.14140839541667 C 50.89674860108333 32.277898632083335,49.19062064275 33.87142214516667,47.371888239166665 35.68674229283334 L 44.062 38.97956925241667 40.75211176083333 35.68674229283334 C 38.93337935725 33.87142214516667,37.23407591075 32.284723143916665,36.978156717 32.158469675 C 36.445844793999996 31.892313713500002,35.15259980158333 31.7694725005,34.64417367 31.936673040416665 "/>
  </g>
 </g>
</svg>