<?xml version="1.0" encoding="UTF-8"?>
<!--Generator: React Native Icon Generator CLI-->
<!DOCTYPE svg
PUBLIC "-//W3C//DTD SVG 1.1//EN"
       "http://www.w3.org/Graphics/SVG/1.1/DTD/svg11.dtd">
<svg version="1.1" xmlns="http://www.w3.org/2000/svg" xmlns:xlink="http://www.w3.org/1999/xlink" viewBox="0 0 3300 2200">
 <style>.defaults {-sfsymbols-wiggle-style:clockwise}

.monochrome-0 {-sfsymbols-motion-group:0}

.multicolor-0:systemBlueColor {-sfsymbols-motion-group:0}

.hierarchical-0:primary {-sfsymbols-motion-group:0}

.SFSymbolsPreviewWireframe {fill:none;opacity:1.0;stroke:black;stroke-width:0.5}
</style>
   <g id="Notes">
              <rect height="2200" id="artboard" style="fill:white;opacity:1" width="3300" x="0" y="0" />
              <line style="fill:none;stroke:black;opacity:1;stroke-width:0.5;" x1="263" x2="3036" y1="292" y2="292" />
              <text style="stroke:none;fill:black;font-family:sans-serif;font-size:13;font-weight:bold;"
                     transform="matrix(1 0 0 1 263 322)">Weight/Scale Variations</text>
              <text style="stroke:none;fill:black;font-family:sans-serif;font-size:13;text-anchor:middle;"
                     transform="matrix(1 0 0 1 559.711 322)">Ultralight</text>
              <text style="stroke:none;fill:black;font-family:sans-serif;font-size:13;text-anchor:middle;"
                     transform="matrix(1 0 0 1 856.422 322)">Thin</text>
              <text style="stroke:none;fill:black;font-family:sans-serif;font-size:13;text-anchor:middle;"
                     transform="matrix(1 0 0 1 1153.13 322)">Light</text>
              <text style="stroke:none;fill:black;font-family:sans-serif;font-size:13;text-anchor:middle;"
                     transform="matrix(1 0 0 1 1449.84 322)">Regular</text>
              <text style="stroke:none;fill:black;font-family:sans-serif;font-size:13;text-anchor:middle;"
                     transform="matrix(1 0 0 1 1746.56 322)">Medium</text>
              <text style="stroke:none;fill:black;font-family:sans-serif;font-size:13;text-anchor:middle;"
                     transform="matrix(1 0 0 1 2043.27 322)">Semibold</text>
              <text style="stroke:none;fill:black;font-family:sans-serif;font-size:13;text-anchor:middle;"
                     transform="matrix(1 0 0 1 2339.98 322)">Bold</text>
              <text style="stroke:none;fill:black;font-family:sans-serif;font-size:13;text-anchor:middle;"
                     transform="matrix(1 0 0 1 2636.69 322)">Heavy</text>
              <text style="stroke:none;fill:black;font-family:sans-serif;font-size:13;text-anchor:middle;"
                     transform="matrix(1 0 0 1 2933.4 322)">Black</text>
              <line style="fill:none;stroke:black;opacity:1;stroke-width:0.5;" x1="263" x2="3036" y1="1903" y2="1903" />
              <g transform="matrix(0.2 0 0 0.2 263 1933)">
                     <path
                            d="m46.2402 4.15039c21.7773 0 39.4531-17.627 39.4531-39.4043s-17.6758-39.4043-39.4531-39.4043c-21.7285 0-39.4043 17.627-39.4043 39.4043s17.6758 39.4043 39.4043 39.4043Zm0-7.42188c-17.6758 0-31.9336-14.3066-31.9336-31.9824s14.2578-31.9824 31.9336-31.9824 31.9824 14.3066 31.9824 31.9824-14.3066 31.9824-31.9824 31.9824Zm-17.9688-31.9824c0 2.14844 1.51367 3.61328 3.75977 3.61328h10.498v10.5957c0 2.19727 1.46484 3.71094 3.61328 3.71094 2.24609 0 3.71094-1.51367 3.71094-3.71094v-10.5957h10.5957c2.19727 0 3.71094-1.46484 3.71094-3.61328 0-2.19727-1.51367-3.71094-3.71094-3.71094h-10.5957v-10.5469c0-2.24609-1.46484-3.75977-3.71094-3.75977-2.14844 0-3.61328 1.51367-3.61328 3.75977v10.5469h-10.498c-2.24609 0-3.75977 1.51367-3.75977 3.71094Z" />
              </g>
              <g transform="matrix(0.2 0 0 0.2 281.506 1933)">
                     <path
                            d="m58.5449 14.5508c27.4902 0 49.8047-22.3145 49.8047-49.8047s-22.3145-49.8047-49.8047-49.8047-49.8047 22.3145-49.8047 49.8047 22.3145 49.8047 49.8047 49.8047Zm0-8.30078c-22.9492 0-41.5039-18.5547-41.5039-41.5039s18.5547-41.5039 41.5039-41.5039 41.5039 18.5547 41.5039 41.5039-18.5547 41.5039-41.5039 41.5039Zm-22.6562-41.5039c0 2.39258 1.66016 4.00391 4.15039 4.00391h14.3555v14.4043c0 2.44141 1.66016 4.15039 4.05273 4.15039 2.44141 0 4.15039-1.66016 4.15039-4.15039v-14.4043h14.4043c2.44141 0 4.15039-1.61133 4.15039-4.00391 0-2.44141-1.70898-4.15039-4.15039-4.15039h-14.4043v-14.3555c0-2.49023-1.70898-4.19922-4.15039-4.19922-2.39258 0-4.05273 1.70898-4.05273 4.19922v14.3555h-14.3555c-2.49023 0-4.15039 1.70898-4.15039 4.15039Z" />
              </g>
              <g transform="matrix(0.2 0 0 0.2 304.924 1933)">
                     <path
                            d="m74.8535 28.3203c35.1074 0 63.623-28.4668 63.623-63.5742s-28.5156-63.623-63.623-63.623-63.5742 28.5156-63.5742 63.623 28.4668 63.5742 63.5742 63.5742Zm0-9.08203c-30.127 0-54.4922-24.3652-54.4922-54.4922s24.3652-54.4922 54.4922-54.4922 54.4922 24.3652 54.4922 54.4922-24.3652 54.4922-54.4922 54.4922Zm-28.8574-54.4922c0 2.58789 1.85547 4.39453 4.58984 4.39453h19.7266v19.7754c0 2.68555 1.85547 4.58984 4.44336 4.58984 2.68555 0 4.54102-1.85547 4.54102-4.58984v-19.7754h19.7754c2.68555 0 4.58984-1.80664 4.58984-4.39453 0-2.73438-1.85547-4.58984-4.58984-4.58984h-19.7754v-19.7266c0-2.73438-1.85547-4.63867-4.54102-4.63867-2.58789 0-4.44336 1.9043-4.44336 4.63867v19.7266h-19.7266c-2.73438 0-4.58984 1.85547-4.58984 4.58984Z" />
              </g>
              <text style="stroke:none;fill:black;font-family:sans-serif;font-size:13;font-weight:bold;"
                     transform="matrix(1 0 0 1 263 1953)">Design Variations</text>
              <text style="stroke:none;fill:black;font-family:sans-serif;font-size:13;"
                     transform="matrix(1 0 0 1 263 1971)">Symbols are supported in up to nine weights and three
                     scales.</text>
              <text style="stroke:none;fill:black;font-family:sans-serif;font-size:13;"
                     transform="matrix(1 0 0 1 263 1989)">For optimal layout with text and other symbols, vertically
                     align</text>
              <text style="stroke:none;fill:black;font-family:sans-serif;font-size:13;"
                     transform="matrix(1 0 0 1 263 2007)">symbols with the adjacent text.</text>
              <line style="fill:none;stroke:#00AEEF;stroke-width:0.5;opacity:1.0;" x1="776" x2="776" y1="1919"
                     y2="1933" />
              <g transform="matrix(0.2 0 0 0.2 776 1933)">
                     <path
                            d="m16.5527 0.78125c2.58789 0 3.85742-0.976562 4.78516-3.71094l6.29883-17.2363h28.8086l6.29883 17.2363c0.927734 2.73438 2.19727 3.71094 4.73633 3.71094 2.58789 0 4.24805-1.5625 4.24805-4.00391 0-0.830078-0.146484-1.61133-0.537109-2.63672l-22.9004-60.9863c-1.12305-2.97852-3.125-4.49219-6.25-4.49219-3.02734 0-5.07812 1.46484-6.15234 4.44336l-22.9004 61.084c-0.390625 1.02539-0.537109 1.80664-0.537109 2.63672 0 2.44141 1.5625 3.95508 4.10156 3.95508Zm13.4766-28.3691 11.8652-32.8613h0.244141l11.8652 32.8613Z" />
              </g>
              <line style="fill:none;stroke:#00AEEF;stroke-width:0.5;opacity:1.0;" x1="792.836" x2="792.836" y1="1919"
                     y2="1933" />
              <text style="stroke:none;fill:black;font-family:sans-serif;font-size:13;font-weight:bold;"
                     transform="matrix(1 0 0 1 776 1953)">Margins</text>
              <text style="stroke:none;fill:black;font-family:sans-serif;font-size:13;"
                     transform="matrix(1 0 0 1 776 1971)">Leading and trailing margins on the left and right side of
                     each symbol</text>
              <text style="stroke:none;fill:black;font-family:sans-serif;font-size:13;"
                     transform="matrix(1 0 0 1 776 1989)">can be adjusted by modifying the x-location of the margin
                     guidelines.</text>
              <text style="stroke:none;fill:black;font-family:sans-serif;font-size:13;"
                     transform="matrix(1 0 0 1 776 2007)">Modifications are automatically applied proportionally to
                     all</text>
              <text style="stroke:none;fill:black;font-family:sans-serif;font-size:13;"
                     transform="matrix(1 0 0 1 776 2025)">scales and weights.</text>
              <g transform="matrix(0.2 0 0 0.2 1289 1933)">
                     <path
                            d="m14.209 9.32617 8.49609 8.54492c4.29688 4.3457 9.22852 4.05273 13.8672-1.07422l53.4668-58.9355-4.83398-4.88281-53.0762 58.3984c-1.75781 2.00195-3.41797 2.49023-5.76172 0.146484l-5.85938-5.81055c-2.34375-2.29492-1.80664-4.00391 0.195312-5.81055l57.373-54.0039-4.88281-4.83398-57.959 54.4434c-4.93164 4.58984-5.32227 9.47266-1.02539 13.8184Zm32.0801-90.9668c-2.09961 2.05078-2.24609 4.93164-1.07422 6.88477 1.17188 1.80664 3.4668 2.97852 6.68945 2.14844 7.32422-1.70898 14.9414-2.00195 22.0703 2.68555l-2.92969 7.27539c-1.70898 4.15039-0.830078 7.08008 1.85547 9.81445l11.4746 11.5723c2.44141 2.44141 4.49219 2.53906 7.32422 2.05078l5.32227-0.976562 3.32031 3.36914-0.195312 2.7832c-0.195312 2.49023 0.439453 4.39453 2.88086 6.78711l3.80859 3.71094c2.39258 2.39258 5.46875 2.53906 7.8125 0.195312l14.5508-14.5996c2.34375-2.34375 2.24609-5.32227-0.146484-7.71484l-3.85742-3.80859c-2.39258-2.39258-4.24805-3.17383-6.64062-2.97852l-2.88086 0.244141-3.22266-3.17383 1.2207-5.61523c0.634766-2.83203-0.146484-5.0293-3.07617-7.95898l-10.9863-10.9375c-16.6992-16.6016-38.8672-16.2109-53.3203-1.75781Zm7.4707 1.85547c12.1582-8.88672 28.6133-7.37305 39.7461 3.75977l12.1582 12.0605c1.17188 1.17188 1.36719 2.09961 1.02539 3.80859l-1.61133 7.42188 7.51953 7.42188 4.93164-0.292969c1.26953-0.0488281 1.66016 0.0488281 2.63672 1.02539l2.88086 2.88086-12.207 12.207-2.88086-2.88086c-0.976562-0.976562-1.12305-1.36719-1.07422-2.68555l0.341797-4.88281-7.4707-7.42188-7.61719 1.26953c-1.61133 0.341797-2.34375 0.195312-3.56445-0.976562l-10.0098-10.0098c-1.26953-1.17188-1.41602-2.00195-0.634766-3.85742l4.39453-10.4492c-7.8125-7.27539-17.9688-10.4004-28.125-7.42188-0.78125 0.195312-1.07422-0.439453-0.439453-0.976562Z" />
              </g>
              <text style="stroke:none;fill:black;font-family:sans-serif;font-size:13;font-weight:bold;"
                     transform="matrix(1 0 0 1 1289 1953)">Exporting</text>
              <text style="stroke:none;fill:black;font-family:sans-serif;font-size:13;"
                     transform="matrix(1 0 0 1 1289 1971)">Symbols should be outlined when exporting to ensure
                     the</text>
              <text style="stroke:none;fill:black;font-family:sans-serif;font-size:13;"
                     transform="matrix(1 0 0 1 1289 1989)">design is preserved when submitting to Xcode.</text>
              <text id="template-version"
                     style="stroke:none;fill:black;font-family:sans-serif;font-size:13;text-anchor:end;"
                     transform="matrix(1 0 0 1 3036 1933)">Template v.6.0</text>
              <text style="stroke:none;fill:black;font-family:sans-serif;font-size:13;text-anchor:end;"
                     transform="matrix(1 0 0 1 3036 1951)">Requires Xcode 16 or greater</text>
              <text id="descriptive-name"
                     style="stroke:none;fill:black;font-family:sans-serif;font-size:13;text-anchor:end;"
                     transform="matrix(1 0 0 1 3036 1969)">Generated from circle</text>
              <text style="stroke:none;fill:black;font-family:sans-serif;font-size:13;text-anchor:end;"
                     transform="matrix(1 0 0 1 3036 1987)">Typeset at 100.0 points</text>
              <text style="stroke:none;fill:black;font-family:sans-serif;font-size:13;"
                     transform="matrix(1 0 0 1 263 726)">Small</text>
              <text style="stroke:none;fill:black;font-family:sans-serif;font-size:13;"
                     transform="matrix(1 0 0 1 263 1156)">Medium</text>
              <text style="stroke:none;fill:black;font-family:sans-serif;font-size:13;"
                     transform="matrix(1 0 0 1 263 1586)">Large</text>
       </g>
 <g id="Guides">
              <g id="H-reference" style="fill:#27AAE1;stroke:none;" transform="matrix(1 0 0 1 339 696)">
                     <path
                            d="M0.993654 0L3.63775 0L29.3281-67.1323L30.0303-67.1323L30.0303-70.459L28.1226-70.459ZM11.6885-24.4799L46.9815-24.4799L46.2315-26.7285L12.4385-26.7285ZM55.1196 0L57.7637 0L30.6382-70.459L29.4326-70.459L29.4326-67.1323Z" />
              </g>
              <line id="Baseline-S" style="fill:none;stroke:#27AAE1;opacity:1;stroke-width:0.5;" x1="263" x2="3036"
                     y1="696" y2="696" />
              <line id="Capline-S" style="fill:none;stroke:#27AAE1;opacity:1;stroke-width:0.5;" x1="263" x2="3036"
                     y1="625.541" y2="625.541" />
              <g id="H-reference" style="fill:#27AAE1;stroke:none;" transform="matrix(1 0 0 1 339 1126)">
                     <path
                            d="M0.993654 0L3.63775 0L29.3281-67.1323L30.0303-67.1323L30.0303-70.459L28.1226-70.459ZM11.6885-24.4799L46.9815-24.4799L46.2315-26.7285L12.4385-26.7285ZM55.1196 0L57.7637 0L30.6382-70.459L29.4326-70.459L29.4326-67.1323Z" />
              </g>
              <line id="Baseline-M" style="fill:none;stroke:#27AAE1;opacity:1;stroke-width:0.5;" x1="263" x2="3036"
                     y1="1126" y2="1126" />
              <line id="Capline-M" style="fill:none;stroke:#27AAE1;opacity:1;stroke-width:0.5;" x1="263" x2="3036"
                     y1="1055.54" y2="1055.54" />
              <g id="H-reference" style="fill:#27AAE1;stroke:none;" transform="matrix(1 0 0 1 339 1556)">
                     <path
                            d="M0.993654 0L3.63775 0L29.3281-67.1323L30.0303-67.1323L30.0303-70.459L28.1226-70.459ZM11.6885-24.4799L46.9815-24.4799L46.2315-26.7285L12.4385-26.7285ZM55.1196 0L57.7637 0L30.6382-70.459L29.4326-70.459L29.4326-67.1323Z" />
              </g>
              <line id="Baseline-L" style="fill:none;stroke:#27AAE1;opacity:1;stroke-width:0.5;" x1="263" x2="3036"
                     y1="1556" y2="1556" />
              <line id="Capline-L" style="fill:none;stroke:#27AAE1;opacity:1;stroke-width:0.5;" x1="263" x2="3036"
                     y1="1485.54" y2="1485.54" />
              <line id="right-margin-Black-S" style="fill:none;stroke:#00AEEF;stroke-width:0.5;opacity:1.0;"
                     x1="2982.23" x2="2982.23" y1="600.785" y2="720.121" />
              <line id="left-margin-Black-S" style="fill:none;stroke:#00AEEF;stroke-width:0.5;opacity:1.0;" x1="2884.57"
                     x2="2884.57" y1="600.785" y2="720.121" />
              <line id="right-margin-Regular-S" style="fill:none;stroke:#00AEEF;stroke-width:0.5;opacity:1.0;"
                     x1="1496.11" x2="1496.11" y1="600.785" y2="720.121" />
              <line id="left-margin-Regular-S" style="fill:none;stroke:#00AEEF;stroke-width:0.5;opacity:1.0;"
                     x1="1403.58" x2="1403.58" y1="600.785" y2="720.121" />
              <line id="right-margin-Ultralight-S" style="fill:none;stroke:#00AEEF;stroke-width:0.5;opacity:1.0;"
                     x1="603.773" x2="603.773" y1="600.785" y2="720.121" />
              <line id="left-margin-Ultralight-S" style="fill:none;stroke:#00AEEF;stroke-width:0.5;opacity:1.0;"
                     x1="515.649" x2="515.649" y1="600.785" y2="720.121" />
       </g>
 <g id="Symbols">
  <!-- Small size variants -->
  <g id="Black-S" transform="matrix(1 0 0 1 2884.57 625.541)">
   <path class="monochrome-0 multicolor-0:systemBlueColor hierarchical-0:primary SFSymbolsPreviewWireframe" d="M47.65596835458334 -6.893215723916665 C 46.7744822995 -6.616067269916665,45.966132642 -5.961688975749999,45.47342427933334 -5.126394329666665 L 45.05770159833333 -4.418126058333332 45.01151018933333 0.12402916000000097 L 44.965318780333334 4.666184378333334 43.07532029541667 5.004921377666667 C 34.99182372041666 6.456101477083337,27.566554723666666 11.471718637666669,22.901222414666666 18.635236316750003 C 21.70409506475 20.471344824500004,20.32220207883333 23.38910215966667,19.594687387083333 25.60628979166667 C 18.99419907008333 27.450096867583333,18.34367006 30.23697854391667,18.34367006 30.987588940166667 L 18.34367006 31.38021591666667 14.132553272833333 31.38021591666667 C 9.544206645499997 31.38021591666667,8.970663317083332 31.46105088241667,7.958301603166665 32.23090769908334 C 7.650358876499999 32.46571402816667,7.207691206916665 32.97766881125,6.980583445999998 33.36644650366667 C 6.630298594416665 33.96693482066667,6.564860764999999 34.25178184283334,6.564860764999999 35.2295 C 6.564860764999999 36.21491672533334,6.6264493103333315 36.49206517933334,6.992131298249999 37.11179991675001 C 7.2269376273333314 37.508276177333336,7.658057444666666 38.02023096041667,7.954452319083332 38.24348943725 C 8.966814032999999 39.017195538,9.317098884583332 39.063386947000005,13.993979045833333 39.071085515166665 L 18.34367006 39.07878408333334 18.34367006 39.471411059833336 C 18.34367006 40.22202145608334,18.99419907008333 43.00890313241668,19.594687387083333 44.852710208333335 C 20.703281203083332 48.24008020166667,22.658717517416665 51.83146225141667,24.922096558416666 54.62989178 C 26.02299180625 55.9925383455,28.663600687416665 58.58310653358334,29.968507991666666 59.58007111116667 C 32.678403986333336 61.647136663916676,36.05037684333333 63.43320447858334,39.206789791666665 64.46481261291666 C 41.03904901533333 65.06530092991667,43.83747854391667 65.71582994000002,44.580390372000004 65.71582994000002 L 44.965318780333334 65.71582994000002 45.01151018933333 70.30802585141666 L 45.05770159833333 74.90022176283335 45.52346497241667 75.65853072725 C 47.070877173916664 78.17211323366666,50.58912282608333 78.17211323366666,52.136535027583335 75.65853072725 L 52.602298401666665 74.90022176283335 52.64848981066667 70.30802585141666 L 52.69468121966666 65.71582994000002 53.079609628 65.71582994000002 C 53.82252145608334 65.71582994000002,56.62095098466666 65.06530092991667,58.45321020833333 64.46481261291666 C 63.18013106266667 62.91740041141667,67.38354928166666 60.27294224616667,70.92873992241667 56.608423798833336 C 73.42307600841667 54.03710203116666,75.01667961891667 51.75832585383334,76.54484539999999 48.590365053250004 C 77.88824554508332 45.81888051325,79.31632994 41.111206079333336,79.31632994 39.471411059833336 L 79.31632994 39.07878408333334 83.66602095416667 39.071085515166665 C 88.34290111541668 39.063386947000005,88.693185967 39.017195538,89.70554768091668 38.24348943725 C 90.00194255533333 38.02023096041667,90.43306237266665 37.508276177333336,90.66786870175 37.11179991675001 C 91.03355068966667 36.49206517933334,91.095139235 36.21491672533334,91.095139235 35.2295 C 91.095139235 34.25178184283334,91.02970140558335 33.96693482066667,90.679416554 33.36644650366667 C 90.45230879308332 32.97766881125,90.00964112349999 32.46571402816667,89.70169839683334 32.23090769908334 C 88.68933668291666 31.46105088241667,88.1157933545 31.38021591666667,83.52744672716668 31.38021591666667 L 79.31632994 31.38021591666667 79.31632994 30.987588940166667 C 79.31632994 30.23697854391667,78.66580092991668 27.450096867583333,78.06531261291667 25.60628979166667 C 76.65647463841665 21.302790186500005,74.281466359 17.33802758066667,71.15969696741666 14.073834678 C 66.75611597608332 9.47394019841667,61.23624260058334 6.3829650795000035,55.17362016933333 5.120399900166667 C 54.184354159916666 4.912538559666668,53.218183855 4.743170060000002,53.033418219000005 4.743170060000002 L 52.69468121966666 4.743170060000002 52.64848981066667 0.16252200083333612 L 52.602298401666665 -4.418126058333332 52.18657572066667 -5.126394329666665 C 51.24735040433333 -6.723847224249998,49.407392612500004 -7.439814063749998,47.65596835458334 -6.893215723916665 M51.000996223 12.283917579250001 C 60.07375880741667 13.169252918416671,67.74153270141667 19.204930361083335,70.65929003658334 27.761888878333338 C 72.572384226 33.37029578775,72.18745581766666 40.04495438825,69.65462689083333 45.160652935 C 66.34424257916666 51.843010103666664,60.593412158666666 56.31587820850002,53.29516953666667 57.882536830416676 C 50.962503382166666 58.38294376125001,46.69749661783333 58.38294376125001,44.364830463333334 57.882536830416676 C 37.05503998908333 56.31587820850002,31.319606704916666 51.85455795591667,28.005373109166666 45.160652935 C 25.472544182333333 40.04495438825,25.087615774 33.37029578775,27.000709963416664 27.761888878333338 C 28.1131530635 24.497695975666666,29.89152231 21.64152718583334,32.39740624825 19.08175327041667 C 37.31294202266666 14.06998539391667,44.04533988441666 11.610292864666668,51.000996223 12.283917579250001 "/>
  </g>
  <g id="Regular-S" transform="matrix(1 0 0 1 1404.14 625.541)">
   <path class="monochrome-0 multicolor-0:systemBlueColor hierarchical-0:primary SFSymbolsPreviewWireframe" d="M45.163321585625 -4.297276683625004 C 44.33615975975 -4.037208336625003,43.577627081 -3.4231580728750037,43.115283353 -2.639340971500003 L 42.7251808325 -1.9747218625000027 42.681836108 2.2875093799999977 L 42.6384913835 6.549740622499996 40.864969739375006 6.867601935499996 C 33.279642951875 8.229348696875,26.3119784885 12.935863365500001,21.934161313999997 19.657907723375 C 20.810810537374998 21.38086052225,19.51408086275 24.1188022865,18.831401451874996 26.199349062499998 C 18.267920033374995 27.929525982125,17.65748183 30.544657693625,17.65748183 31.249009466750003 L 17.65748183 31.617439625000003 13.705887779749997 31.617439625000003 C 9.400311812749997 31.617439625000003,8.862114816874996 31.693292892875007,7.912142938249995 32.415704967875 C 7.623178108249996 32.636040650750004,7.207791165124996 33.116444680625,6.994679602999995 33.4812627785 C 6.665982108874996 34.04474419700001,6.604577082499996 34.31203666475,6.604577082499996 35.2295 C 6.604577082499996 36.154187456,6.662370048499996 36.414255802999996,7.005515784124996 36.995797523375 C 7.225851466999996 37.367839742,7.630402228999996 37.848243771875,7.908530877874996 38.057743273625 C 8.858502756499995 38.783767409,9.187200250624997 38.8271121335,13.575853606249998 38.83433625425 L 17.65748183 38.841560375 17.65748183 39.20999053325 C 17.65748183 39.914342306375005,18.267920033374995 42.529474017875,18.831401451874996 44.259650937500005 C 19.871674839874995 47.43826406750001,21.706601510374995 50.808316397375,23.830493010874996 53.43428429 C 24.863542278125 54.712953662749996,27.341415695374998 57.143870295125005,28.565904162499997 58.07939393225001 C 31.1087946665 60.019070353625004,34.272959555 61.69506636762501,37.2348490625 62.663098548125 C 38.954189801000005 63.226579966625,41.580157693625 63.837018170000015,42.277285346000006 63.837018170000015 L 42.6384913835 63.837018170000015 42.681836108 68.146206197375 L 42.7251808325 72.45539422475002 43.162240137875 73.16697011862502 C 44.614288408625 75.52564554349999,47.915711591375 75.52564554349999,49.367759862125 73.16697011862502 L 49.8048191675 72.45539422475002 49.848163892 68.146206197375 L 49.8915086165 63.837018170000015 50.252714653999995 63.837018170000015 C 50.949842306375004 63.837018170000015,53.575810198999996 63.226579966625,55.295150937500004 62.663098548125 C 59.730761078 61.211050277375016,63.675131007500006 58.72956479975,67.00183861287499 55.29088332275 C 69.34245373587501 52.87802699225,70.83784673112501 50.73968725025001,72.2718347 47.766961561625 C 73.532443770875 45.166278091625,74.87251817 40.748728253,74.87251817 39.20999053325 L 74.87251817 38.841560375 78.95414639375 38.83433625425 C 83.34279974937502 38.8271121335,83.6714972435 38.783767409,84.621469122125 38.057743273625 C 84.899597771 37.848243771875,85.30414853300002 37.367839742,85.52448421587499 36.995797523375 C 85.86762995149999 36.414255802999996,85.92542291750001 36.154187456,85.92542291750001 35.2295 C 85.92542291750001 34.31203666475,85.864017891125 34.04474419700001,85.53532039699999 33.4812627785 C 85.322208834875 33.116444680625,84.90682189175001 32.636040650750004,84.61785706174999 32.415704967875 C 83.66788518312501 31.693292892875007,83.12968818725 31.617439625000003,78.82411222025002 31.617439625000003 L 74.87251817 31.617439625000003 74.87251817 31.249009466750003 C 74.87251817 30.544657693625,74.26207996662501 27.929525982125,73.698598548125 26.199349062499998 C 72.37658445087501 22.16106556325,70.14794319949999 18.440643377,67.218562235375 15.377616178999997 C 63.086365166375 11.061204030875,57.906670588625005 8.160719549749999,52.217675498 6.975963746749997 C 51.289375981625 6.780912486499997,50.3827488275 6.621981829999999,50.209369929500006 6.621981829999999 L 49.8915086165 6.621981829999999 49.848163892 2.3236299837499974 L 49.8048191675 -1.9747218625000027 49.414716647 -2.639340971500003 C 48.5333739155 -4.138346027125003,46.80680905625 -4.810189256875002,45.163321585625 -4.297276683625004 M48.302202051500004 13.698008104624996 C 56.815828355375 14.528781990875,64.011052622375 20.192492658875,66.748994386625 28.222102872500002 C 68.54418839300001 33.484874838875,68.1829823555 39.748187529125,65.80624662875 44.5486157675 C 62.69987470625001 50.8191525785,57.303456505999996 55.016366734250006,50.454990035 56.486475306875015 C 48.266081447750004 56.956043155625004,44.26391855225 56.956043155625004,42.075009965 56.486475306875015 C 35.215707312875004 55.016366734250006,29.833737354125 50.829988759625,26.723753371249998 44.5486157675 C 24.3470176445 39.748187529125,23.985811607 33.484874838875,25.781005613374997 28.222102872500002 C 26.824891061749998 25.159075674500002,28.493662954999998 22.478926876250004,30.845114259124998 20.076906726875 C 35.457715357999994 15.374004118624999,41.775208953875 13.065897538999998,48.302202051500004 13.698008104624996 "/>
  </g>
  <g id="Ultralight-S" transform="matrix(1 0 0 1 515.484 625.541)">
   <path class="monochrome-0 multicolor-0:systemBlueColor hierarchical-0:primary SFSymbolsPreviewWireframe" d="M43.02126194541666 -2.1108164960833333 C 42.23985534049999 -1.8651340700833328,41.523281598 -1.2850505642499996,41.086512840666664 -0.5445910303333328 L 40.71798920166666 0.0832640583333335 40.677042130666656 4.10972604 L 40.636095059666665 8.136188021666666 38.96067740458333 8.436466542333333 C 31.794939979583326 9.722887022916668,25.21269831633333 14.169056482333335,21.077044145333332 20.51926474325 C 20.015832555249997 22.1469108155,18.790832681166663 24.73340080033333,18.14591631291666 26.698860208333336 C 17.61360438991666 28.33333079241666,17.036933139999995 30.80380407608333,17.036933139999995 31.469193979833335 L 17.036933139999995 31.817244083333335 13.303925167166664 31.817244083333335 C 9.236516114499995 31.817244083333335,8.728089982916664 31.888901457583337,7.83066667683333 32.571352640916665 C 7.557686203499997 32.77950025183333,7.16527677308333 33.23333028875,6.963953673999995 33.57796813633333 C 6.65343838558333 34.110280059333334,6.595430034999996 34.362786997166666,6.595430034999996 35.2295 C 6.595430034999996 36.10303751466667,6.650026129666664 36.34871994066666,6.974190441749997 36.89809314325 C 7.182338052666663 37.24955550266667,7.56451071533333 37.70338553958333,7.827254420916663 37.90129638275 C 8.724677726999996 38.587159822,9.035193015416663 38.628106893,13.181083954166663 38.63493140483333 L 17.036933139999995 38.64175591666667 17.036933139999995 38.98980602016667 C 17.036933139999995 39.655195923916665,17.61360438991666 42.125669207583336,18.14591631291666 43.76013979166667 C 19.12864601691666 46.76292499833333,20.862072022583327 49.94655976858333,22.86847850158333 52.42726982 C 23.844383693749997 53.63520841449999,26.18519125258333 55.93165664641667,27.341946008333327 56.81543092883334 C 29.744174173666664 58.64781235608333,32.733310356666664 60.23109910141667,35.53136020833333 61.145583687083324 C 37.15559402466666 61.67789561008333,39.63630407608333 62.254566860000004,40.294869468 62.254566860000004 L 40.636095059666665 62.254566860000004 40.677042130666656 66.32538816858334 L 40.71798920166666 70.39620947716668 41.13087216758333 71.06842389274999 C 42.502599046083326 73.29662700633332,45.62140095391666 73.29662700633332,46.99312783241666 71.06842389274999 L 47.406010798333334 70.39620947716668 47.44695786933333 66.32538816858334 L 47.48790494033333 62.254566860000004 47.82913053199999 62.254566860000004 C 48.48769592391666 62.254566860000004,50.968405975333326 61.67789561008333,52.59263979166666 61.145583687083324 C 56.782890057333326 59.77385680858334,60.50907351833333 57.429636993833334,63.65176121758333 54.18116936116666 C 65.86290305158332 51.90178240883333,67.27557700108332 49.88172690616667,68.6302426 47.07344028675 C 69.82111991491666 44.616616026749995,71.08706686 40.44342704066667,71.08706686 38.98980602016667 L 71.08706686 38.64175591666667 74.94291604583333 38.63493140483333 C 79.08880698458333 38.628106893,79.399322273 38.587159822,80.29674557908334 37.90129638275 C 80.55948928466665 37.70338553958333,80.94166194733333 37.24955550266667,81.14980955824998 36.89809314325 C 81.47397387033331 36.34871994066666,81.528569965 36.10303751466667,81.528569965 35.2295 C 81.528569965 34.362786997166666,81.47056161441665 34.110280059333334,81.16004632599999 33.57796813633333 C 80.95872322691665 33.23333028875,80.5663137965 32.77950025183333,80.29333332316665 32.571352640916665 C 79.39591001708334 31.888901457583337,78.88748388549999 31.817244083333335,74.82007483283331 31.817244083333335 L 71.08706686 31.817244083333335 71.08706686 31.469193979833335 C 71.08706686 30.80380407608333,70.51039561008332 28.33333079241666,69.97808368708331 26.698860208333336 C 68.72919802158333 22.8839580935,66.62383612099998 19.369334499333334,63.856496572583325 16.475741482 C 59.95287580391666 12.398095661583334,55.05970081941666 9.6580541605,49.68539775066666 8.538834219833333 C 48.80844798008333 8.354572400333332,47.951971744999994 8.20443314,47.788183460999996 8.20443314 L 47.48790494033333 8.20443314 47.44695786933333 4.143848599166667 L 47.406010798333334 0.0832640583333335 47.03748715933333 -0.5445910303333328 C 46.20489671566666 -1.9606772357499995,44.5738383875 -2.5953568362499992,43.02126194541666 -2.1108164960833333 M45.98651233699999 14.88904248075 C 54.02919953258333 15.673861341583333,60.82641331858333 21.024278618916664,63.41290330341666 28.609723521666666 C 65.108794494 33.58138039225,64.76756890233332 39.498232151749995,62.52230450916666 44.033120265 C 59.58776442083333 49.95679653633333,54.48985408133333 53.921837911500006,48.02021686333333 55.310626069583336 C 45.95238977783333 55.754219338750005,42.17161022216666 55.754219338750005,40.103783136666664 55.310626069583336 C 33.62390915091666 53.921837911500006,28.53964783508333 49.96703330408333,25.60169549083333 44.033120265 C 23.356431097666665 39.498232151749995,23.015205505999997 33.58138039225,24.71109669658333 28.609723521666666 C 25.697238656499998 25.716130504333332,27.273700889999997 23.184236614166668,29.495079491749994 20.915086429583333 C 33.85253029733333 16.472329226083335,39.82056589558333 14.291897695333333,45.98651233699999 14.88904248075 "/>
  </g>
 </g>
</svg>