<?xml version="1.0" encoding="UTF-8"?>
<svg height="600" width="800" xmlns="http://www.w3.org/2000/svg" xmlns:xlink="http://www.w3.org/1999/xlink">
    <g id="Notes" font-family="'LucidaGrande', 'Lucida Grande', sans-serif" font-size="13">
        <rect fill="white" height="600.0" width="800.0" x="0.0" y="0.0" />
        <g font-size="13">
            <text x="18.0" y="176.0">Small</text>
            <text x="18.0" y="376.0">Medium</text>
            <text x="18.0" y="576.0">Large</text>
        </g>
        <g font-size="9">
            <text x="250.0" y="30.0">Ultralight</text>
            <text x="450.0" y="30.0">Regular</text>
            <text x="650.0" y="30.0">Black</text>
            <text id="template-version" fill="#505050" text-anchor="end" x="785.0" y="575.0">Template v.3.0</text>
            <text fill="#505050" text-anchor="end" x="785.0" y="590.0">Generated by react-native-icon-generator-cli</text>
        </g>
    </g>
    <g id="Guides" stroke="rgb(39, 170, 225)" stroke-width="0.5">
        <path id="Capline-S" d="M18,76 l800,0" />
        <path id="H-reference" d="M85,145.755 L87.685,145.755 L113.369,79.287 L114.052,79.287 L114.052,76 L112.148,76 L85,145.755 Z M95.693,121.536 L130.996,121.536 L130.263,119.313 L96.474,119.313 L95.693,121.536 Z M139.15,145.755 L141.787,145.755 L114.638,76 L113.466,76 L113.466,79.287 L139.15,145.755 Z" stroke="none" />
        <path id="Baseline-S" d="M18,146 l800,0" />
        <path id="left-margin-Ultralight-S" d="M220,56 l0,110" />
        <path id="right-margin-Ultralight-S" d="M310,56 l0,110" />
        <path id="left-margin-Regular-S" d="M420,56 l0,110" />
        <path id="right-margin-Regular-S" d="M510,56 l0,110" />
        <path id="left-margin-Black-S" d="M620,56 l0,110" />
        <path id="right-margin-Black-S" d="M710,56 l0,110" />

        <!-- Medium size guidelines -->
        <path id="Capline-M" d="M18,276 l800,0" />
        <path id="Baseline-M" d="M18,346 l800,0" />
        <path id="left-margin-Ultralight-M" d="M220,256 l0,110" />
        <path id="right-margin-Ultralight-M" d="M310,256 l0,110" />
        <path id="left-margin-Regular-M" d="M420,256 l0,110" />
        <path id="right-margin-Regular-M" d="M510,256 l0,110" />
        <path id="left-margin-Black-M" d="M620,256 l0,110" />
        <path id="right-margin-Black-M" d="M710,256 l0,110" />

        <!-- Large size guidelines -->
        <path id="Capline-L" d="M18,476 l800,0" />
        <path id="Baseline-L" d="M18,546 l800,0" />
        <path id="left-margin-Ultralight-L" d="M220,456 l0,110" />
        <path id="right-margin-Ultralight-L" d="M310,456 l0,110" />
        <path id="left-margin-Regular-L" d="M420,456 l0,110" />
        <path id="right-margin-Regular-L" d="M510,456 l0,110" />
        <path id="left-margin-Black-L" d="M620,456 l0,110" />
        <path id="right-margin-Black-L" d="M710,456 l0,110" />
    </g>
    <g id="Symbols">
        <!-- Only include the Small size variants -->
        <g id="Ultralight-S">
            <g transform="translate(230, 76) scale(2.9166666666666665)">
          <path d="M11.695 1.057 C 11.466 1.129,11.256 1.299,11.128 1.516 L 11.020 1.700 11.008 2.880 L 10.996 4.060 10.505 4.148 C 8.405 4.525,6.476 5.828,5.264 7.689 C 4.953 8.166,4.594 8.924,4.405 9.500 C 4.249 9.979,4.080 10.703,4.080 10.898 L 4.080 11.000 2.986 11.000 C 1.794 11.000,1.645 11.021,1.382 11.221 C 1.302 11.282,1.187 11.415,1.128 11.516 C 1.037 11.672,1.020 11.746,1.020 12.000 C 1.020 12.256,1.036 12.328,1.131 12.489 C 1.192 12.592,1.304 12.725,1.381 12.783 C 1.644 12.984,1.735 12.996,2.950 12.998 L 4.080 13.000 4.080 13.102 C 4.080 13.297,4.249 14.021,4.405 14.500 C 4.693 15.380,5.201 16.313,5.789 17.040 C 6.075 17.394,6.761 18.067,7.100 18.326 C 7.804 18.863,8.680 19.327,9.500 19.595 C 9.976 19.751,10.703 19.920,10.896 19.920 L 10.996 19.920 11.008 21.113 L 11.020 22.306 11.141 22.503 C 11.543 23.156,12.457 23.156,12.859 22.503 L 12.980 22.306 12.992 21.113 L 13.004 19.920 13.104 19.920 C 13.297 19.920,14.024 19.751,14.500 19.595 C 15.728 19.193,16.820 18.506,17.741 17.554 C 18.389 16.886,18.803 16.294,19.200 15.471 C 19.549 14.751,19.920 13.528,19.920 13.102 L 19.920 13.000 21.050 12.998 C 22.265 12.996,22.356 12.984,22.619 12.783 C 22.696 12.725,22.808 12.592,22.869 12.489 C 22.964 12.328,22.980 12.256,22.980 12.000 C 22.980 11.746,22.963 11.672,22.872 11.516 C 22.813 11.415,22.698 11.282,22.618 11.221 C 22.355 11.021,22.206 11.000,21.014 11.000 L 19.920 11.000 19.920 10.898 C 19.920 10.703,19.751 9.979,19.595 9.500 C 19.229 8.382,18.612 7.352,17.801 6.504 C 16.657 5.309,15.223 4.506,13.648 4.178 C 13.391 4.124,13.140 4.080,13.092 4.080 L 13.004 4.080 12.992 2.890 L 12.980 1.700 12.872 1.516 C 12.628 1.101,12.150 0.915,11.695 1.057 M12.564 6.039 C 14.921 6.269,16.913 7.837,17.671 10.060 C 18.168 11.517,18.068 13.251,17.410 14.580 C 16.550 16.316,15.056 17.478,13.160 17.885 C 12.554 18.015,11.446 18.015,10.840 17.885 C 8.941 17.478,7.451 16.319,6.590 14.580 C 5.932 13.251,5.832 11.517,6.329 10.060 C 6.618 9.212,7.080 8.470,7.731 7.805 C 9.008 6.503,10.757 5.864,12.564 6.039 "  fill="black" fill-rule="evenodd"></path>
      </g>
        </g>
        <g id="Regular-S">
            <g transform="translate(430, 76) scale(2.9166666666666665)">
          <path d="M11.695 1.057 C 11.466 1.129,11.256 1.299,11.128 1.516 L 11.020 1.700 11.008 2.880 L 10.996 4.060 10.505 4.148 C 8.405 4.525,6.476 5.828,5.264 7.689 C 4.953 8.166,4.594 8.924,4.405 9.500 C 4.249 9.979,4.080 10.703,4.080 10.898 L 4.080 11.000 2.986 11.000 C 1.794 11.000,1.645 11.021,1.382 11.221 C 1.302 11.282,1.187 11.415,1.128 11.516 C 1.037 11.672,1.020 11.746,1.020 12.000 C 1.020 12.256,1.036 12.328,1.131 12.489 C 1.192 12.592,1.304 12.725,1.381 12.783 C 1.644 12.984,1.735 12.996,2.950 12.998 L 4.080 13.000 4.080 13.102 C 4.080 13.297,4.249 14.021,4.405 14.500 C 4.693 15.380,5.201 16.313,5.789 17.040 C 6.075 17.394,6.761 18.067,7.100 18.326 C 7.804 18.863,8.680 19.327,9.500 19.595 C 9.976 19.751,10.703 19.920,10.896 19.920 L 10.996 19.920 11.008 21.113 L 11.020 22.306 11.141 22.503 C 11.543 23.156,12.457 23.156,12.859 22.503 L 12.980 22.306 12.992 21.113 L 13.004 19.920 13.104 19.920 C 13.297 19.920,14.024 19.751,14.500 19.595 C 15.728 19.193,16.820 18.506,17.741 17.554 C 18.389 16.886,18.803 16.294,19.200 15.471 C 19.549 14.751,19.920 13.528,19.920 13.102 L 19.920 13.000 21.050 12.998 C 22.265 12.996,22.356 12.984,22.619 12.783 C 22.696 12.725,22.808 12.592,22.869 12.489 C 22.964 12.328,22.980 12.256,22.980 12.000 C 22.980 11.746,22.963 11.672,22.872 11.516 C 22.813 11.415,22.698 11.282,22.618 11.221 C 22.355 11.021,22.206 11.000,21.014 11.000 L 19.920 11.000 19.920 10.898 C 19.920 10.703,19.751 9.979,19.595 9.500 C 19.229 8.382,18.612 7.352,17.801 6.504 C 16.657 5.309,15.223 4.506,13.648 4.178 C 13.391 4.124,13.140 4.080,13.092 4.080 L 13.004 4.080 12.992 2.890 L 12.980 1.700 12.872 1.516 C 12.628 1.101,12.150 0.915,11.695 1.057 M12.564 6.039 C 14.921 6.269,16.913 7.837,17.671 10.060 C 18.168 11.517,18.068 13.251,17.410 14.580 C 16.550 16.316,15.056 17.478,13.160 17.885 C 12.554 18.015,11.446 18.015,10.840 17.885 C 8.941 17.478,7.451 16.319,6.590 14.580 C 5.932 13.251,5.832 11.517,6.329 10.060 C 6.618 9.212,7.080 8.470,7.731 7.805 C 9.008 6.503,10.757 5.864,12.564 6.039 "  fill="black" fill-rule="evenodd"></path>
      </g>
        </g>
        <g id="Black-S">
            <g transform="translate(630, 76) scale(2.9166666666666665)">
          <path d="M11.695 1.057 C 11.466 1.129,11.256 1.299,11.128 1.516 L 11.020 1.700 11.008 2.880 L 10.996 4.060 10.505 4.148 C 8.405 4.525,6.476 5.828,5.264 7.689 C 4.953 8.166,4.594 8.924,4.405 9.500 C 4.249 9.979,4.080 10.703,4.080 10.898 L 4.080 11.000 2.986 11.000 C 1.794 11.000,1.645 11.021,1.382 11.221 C 1.302 11.282,1.187 11.415,1.128 11.516 C 1.037 11.672,1.020 11.746,1.020 12.000 C 1.020 12.256,1.036 12.328,1.131 12.489 C 1.192 12.592,1.304 12.725,1.381 12.783 C 1.644 12.984,1.735 12.996,2.950 12.998 L 4.080 13.000 4.080 13.102 C 4.080 13.297,4.249 14.021,4.405 14.500 C 4.693 15.380,5.201 16.313,5.789 17.040 C 6.075 17.394,6.761 18.067,7.100 18.326 C 7.804 18.863,8.680 19.327,9.500 19.595 C 9.976 19.751,10.703 19.920,10.896 19.920 L 10.996 19.920 11.008 21.113 L 11.020 22.306 11.141 22.503 C 11.543 23.156,12.457 23.156,12.859 22.503 L 12.980 22.306 12.992 21.113 L 13.004 19.920 13.104 19.920 C 13.297 19.920,14.024 19.751,14.500 19.595 C 15.728 19.193,16.820 18.506,17.741 17.554 C 18.389 16.886,18.803 16.294,19.200 15.471 C 19.549 14.751,19.920 13.528,19.920 13.102 L 19.920 13.000 21.050 12.998 C 22.265 12.996,22.356 12.984,22.619 12.783 C 22.696 12.725,22.808 12.592,22.869 12.489 C 22.964 12.328,22.980 12.256,22.980 12.000 C 22.980 11.746,22.963 11.672,22.872 11.516 C 22.813 11.415,22.698 11.282,22.618 11.221 C 22.355 11.021,22.206 11.000,21.014 11.000 L 19.920 11.000 19.920 10.898 C 19.920 10.703,19.751 9.979,19.595 9.500 C 19.229 8.382,18.612 7.352,17.801 6.504 C 16.657 5.309,15.223 4.506,13.648 4.178 C 13.391 4.124,13.140 4.080,13.092 4.080 L 13.004 4.080 12.992 2.890 L 12.980 1.700 12.872 1.516 C 12.628 1.101,12.150 0.915,11.695 1.057 M12.564 6.039 C 14.921 6.269,16.913 7.837,17.671 10.060 C 18.168 11.517,18.068 13.251,17.410 14.580 C 16.550 16.316,15.056 17.478,13.160 17.885 C 12.554 18.015,11.446 18.015,10.840 17.885 C 8.941 17.478,7.451 16.319,6.590 14.580 C 5.932 13.251,5.832 11.517,6.329 10.060 C 6.618 9.212,7.080 8.470,7.731 7.805 C 9.008 6.503,10.757 5.864,12.564 6.039 "  fill="black" fill-rule="evenodd"></path>
      </g>
        </g>
    </g>
</svg>